<svg width="32" height="32" viewBox="0 0 21 21" fill="none" xmlns="http://www.w3.org/2000/svg">
	<path d="M20.4698 13.5999L19.448 12.9978L11.2985 17.7995C11.0211 17.9629 10.7045 18.0492 10.3829 18.0492C10.0613 18.0492 9.74476 17.9629 9.46759 17.7996L1.31782 12.9978L0.296034 13.5999C0.11263 13.708 0 13.905 0 14.1179C0 14.3307 0.11263 14.5278 0.296034 14.6359L10.0777 20.3992C10.1719 20.4547 10.2773 20.4824 10.3829 20.4824C10.4884 20.4824 10.5939 20.4547 10.688 20.3992L20.4697 14.6359C20.6531 14.5278 20.7658 14.3308 20.7658 14.1179C20.7658 13.9049 20.6532 13.7079 20.4698 13.5999Z" fill="#19191B"/>
	<path d="M20.4698 9.9641L19.4481 9.36214L11.2985 14.1639C11.021 14.3272 10.7045 14.4135 10.3829 14.4135C10.0612 14.4135 9.74472 14.3273 9.46755 14.164L1.3177 9.36214L0.296034 9.96414C0.11263 10.0722 0 10.2692 0 10.4821C0 10.695 0.11263 10.892 0.296034 11.0001L10.0777 16.7634C10.1719 16.8189 10.2773 16.8466 10.3829 16.8466C10.4884 16.8466 10.5939 16.8189 10.688 16.7634L20.4697 11.0001C20.6532 10.892 20.7658 10.695 20.7658 10.4821C20.7658 10.2692 20.6532 10.0722 20.4698 9.9641Z" fill="#19191B"/>
	<path d="M20.4698 6.32886L10.6881 0.565617C10.4998 0.45469 10.2661 0.45469 10.0777 0.565617L0.296034 6.3289C0.11263 6.43699 0 6.63402 0 6.84687C0 7.05972 0.11263 7.25679 0.296034 7.36488L10.0777 13.1282C10.1719 13.1836 10.2773 13.2114 10.3829 13.2114C10.4884 13.2114 10.5939 13.1836 10.688 13.1282L20.4697 7.36484C20.6531 7.25679 20.7658 7.05976 20.7658 6.84683C20.7658 6.63398 20.6532 6.43695 20.4698 6.32886Z" fill="#F1C644"/>
</svg>
