<?xml version="1.0" encoding="utf-8"?>
<svg viewBox="174.949 224.803 298.582 102.973" xmlns="http://www.w3.org/2000/svg">
  <defs>
    <linearGradient gradientUnits="userSpaceOnUse" x1="50.75" y1="0" x2="50.75" y2="34.119" id="gradient-1" gradientTransform="matrix(0.566533, 1.718008, -2.987933, 0.985306, 72.63687, -87.690311)">
      <stop offset="0" style="stop-color: rgb(255, 38, 143);"/>
      <stop offset="1" style="stop-color: rgb(191, 0, 92);"/>
    </linearGradient>
  </defs>
  <g transform="matrix(7.232563, 0, 0, 7.232563, 80.593201, 122.15464)" style="">
    <title>Layer 1</title>
    <g id="Layer_2_1_">
      <g id="Ebene_1">
        <g id="g-1" transform="matrix(0.39985, 0, 0, 0.39985, 13.372222, 14.52984)" style="">
          <g id="g-2">
            <path class="st0" d="M12.3,20.3l10.1,13.4h-5.6c-1.5,0-2.9-0.7-3.7-1.9l-6.7-9.8H6.3v11.7H3.8C1.7,33.7,0,32,0,29.9c0,0,0,0,0,0V0 h2.5c2.1,0,3.8,1.7,3.8,3.8v15.3h0.1l6.2-8c0.9-1.1,2.2-1.7,3.5-1.7h5.2L12.3,20.3z M24.9,0h-2.5v29.9c0,2.1,1.7,3.8,3.8,3.8l0,0 h2.5V3.8C28.7,1.7,27,0,24.9,0z M34.8,6.6h0.3c1.7,0,3-1.3,3-3l0,0c0-1.7-1.3-3-3-3h-0.3c-1.7,0-3,1.3-3,3l0,0 C31.8,5.3,33.2,6.6,34.8,6.6L34.8,6.6z M34.4,9.5h-2.5v20.4c0,2.1,1.7,3.8,3.8,3.8h2.5V13.3C38.2,11.2,36.5,9.5,34.4,9.5L34.4,9.5 z M53.7,29.3c-0.3,0-0.6,0-0.9,0c-4.4,0-6.5-3.4-6.5-7.9s2.5-7.7,6.4-7.7c0.3,0,0.5,0,0.8,0c2,0.1,3.8-1.4,4-3.4l0.1-0.7 c-2-0.6-4-0.8-6.1-0.8c-7.6,0-11.7,5.5-11.7,12.5c0,7.4,4,12.8,11.9,12.8c2.1,0.1,4.2-0.2,6.3-0.8v-0.6c-0.2-2.1-2-3.7-4.1-3.5 C53.9,29.3,53.8,29.3,53.7,29.3z M80.1,9.5h-5.2c-1.4,0-2.7,0.6-3.5,1.7l-6.2,8h-0.1V3.8c0-2.1-1.7-3.8-3.8-3.8h-2.5v29.9 c0,2.1,1.7,3.8,3.8,3.8h2.5V21.9h0.1l6.8,9.8c0.8,1.2,2.2,1.9,3.7,1.9h5.6L71.1,20.3L80.1,9.5z M101.5,0h-8.7 C90.7,0,89,1.7,89,3.8c0,0,0,0,0,0V5h6.4l-7,14.5h3.2c1.7,0,3.3-1,4-2.5l5.8-12L101.5,0z M81.8,3.8v15.9h2.3 c2.1,0,3.8-1.7,3.8-3.8V0h-2.3C83.5,0,81.8,1.7,81.8,3.8C81.8,3.8,81.8,3.8,81.8,3.8z" style="fill: url(#gradient-1);"/>
          </g>
        </g>
      </g>
    </g>
  </g>
</svg>
